<svg width="69" height="30" viewBox="0 0 69 30" fill="none" xmlns="http://www.w3.org/2000/svg">
<path d="M10.2135 19.8219V22.3684H0V6.22528H2.7463V19.8219H10.2135Z" fill="#4C97DC"/>
<path d="M69 22.3684H65.5728L60.4207 15.0017L57.6063 17.9348V22.3684H54.86V6.22528H57.6063V14.456L65.0735 6.22528H68.6823L62.3272 12.9326L69 22.3684Z" fill="#4C97DC"/>
<ellipse cx="39.1835" cy="14.7895" rx="10.928" ry="10.9474" fill="#4C97DC"/>
<ellipse cx="39.1834" cy="14.7895" rx="9.13655" ry="9.15272" fill="white"/>
<ellipse cx="39.1834" cy="14.7895" rx="7.34507" ry="7.35807" fill="#4C97DC" fill-opacity="0.5"/>
<ellipse cx="39.2872" cy="14.8934" rx="4.58241" ry="4.59053" fill="white"/>
<path d="M26.364 28.5C33.8107 28.5 39.8428 22.4533 39.8428 15C39.8428 7.54666 33.8107 1.5 26.364 1.5C18.9174 1.5 12.8853 7.54666 12.8853 15C12.8853 22.4533 18.9174 28.5 26.364 28.5Z" fill="#4C97DC" stroke="white" stroke-width="3"/>
<ellipse cx="26.3641" cy="15" rx="2.73684" ry="2.73201" transform="rotate(-90 26.3641 15)" fill="white"/>
<path d="M26.1539 15L17.6427 17.3702V12.6298L26.1539 15Z" fill="white"/>
<path d="M26.1539 15L34.6652 17.3702V12.6298L26.1539 15Z" fill="white"/>
</svg>
